<svg xmlns="http://www.w3.org/2000/svg" width="560" height="210" viewBox="0 0 560 210" role="img" aria-labelledby="title desc">
  <title id="title">pavankrishtaiahveguru's Most Used Languages</title>
  <desc id="desc">top languages by bytes of code across owned repositories</desc>
  <rect x="0.5" y="0.5" width="559" height="209" rx="14" ry="14" fill="#0D1117" stroke="#30363D" stroke-width="1"/>
  <text x="26" y="36" font-family="Segoe UI, Ubuntu, Sans-Serif" font-size="15" font-weight="700" fill="#6EE7F7">Most Used Languages</text>  <line x1="26" y1="48" x2="534" y2="48" stroke="#30363D" stroke-width="1"/>  <rect x="26.00" y="64" width="384.79" height="10" rx="5" ry="5" fill="#F1E05A"/>  <rect x="410.79" y="64" width="52.15" height="10" rx="5" ry="5" fill="#3178C6"/>  <rect x="462.94" y="64" width="26.20" height="10" rx="5" ry="5" fill="#B07219"/>  <rect x="489.14" y="64" width="20.78" height="10" rx="5" ry="5" fill="#E34C26"/>  <rect x="509.92" y="64" width="13.19" height="10" rx="5" ry="5" fill="#563D7C"/>  <rect x="523.11" y="64" width="10.89" height="10" rx="5" ry="5" fill="#FF6B6B"/>  <circle cx="32.0" cy="96" r="5" fill="#F1E05A"/>  <text x="46.0" y="100" font-family="Segoe UI, Ubuntu, Sans-Serif" font-size="12.5" fill="#FFFFFF">JavaScript</text>  <text x="266.0" y="100" text-anchor="end" font-family="Segoe UI, Ubuntu, Sans-Serif" font-size="12.5" font-weight="600" fill="#F1E05A">75.75%</text>  <circle cx="32.0" cy="120" r="5" fill="#3178C6"/>  <text x="46.0" y="124" font-family="Segoe UI, Ubuntu, Sans-Serif" font-size="12.5" fill="#FFFFFF">TypeScript</text>  <text x="266.0" y="124" text-anchor="end" font-family="Segoe UI, Ubuntu, Sans-Serif" font-size="12.5" font-weight="600" fill="#3178C6">10.27%</text>  <circle cx="32.0" cy="144" r="5" fill="#B07219"/>  <text x="46.0" y="148" font-family="Segoe UI, Ubuntu, Sans-Serif" font-size="12.5" fill="#FFFFFF">Java</text>  <text x="266.0" y="148" text-anchor="end" font-family="Segoe UI, Ubuntu, Sans-Serif" font-size="12.5" font-weight="600" fill="#B07219">5.16%</text>  <circle cx="286.0" cy="96" r="5" fill="#E34C26"/>  <text x="300.0" y="100" font-family="Segoe UI, Ubuntu, Sans-Serif" font-size="12.5" fill="#FFFFFF">HTML</text>  <text x="520.0" y="100" text-anchor="end" font-family="Segoe UI, Ubuntu, Sans-Serif" font-size="12.5" font-weight="600" fill="#E34C26">4.09%</text>  <circle cx="286.0" cy="120" r="5" fill="#563D7C"/>  <text x="300.0" y="124" font-family="Segoe UI, Ubuntu, Sans-Serif" font-size="12.5" fill="#FFFFFF">CSS</text>  <text x="520.0" y="124" text-anchor="end" font-family="Segoe UI, Ubuntu, Sans-Serif" font-size="12.5" font-weight="600" fill="#563D7C">2.60%</text>  <circle cx="286.0" cy="144" r="5" fill="#FF6B6B"/>  <text x="300.0" y="148" font-family="Segoe UI, Ubuntu, Sans-Serif" font-size="12.5" fill="#FFFFFF">Other</text>  <text x="520.0" y="148" text-anchor="end" font-family="Segoe UI, Ubuntu, Sans-Serif" font-size="12.5" font-weight="600" fill="#FF6B6B">2.14%</text>  <text x="26" y="198" font-family="Segoe UI, Ubuntu, Sans-Serif" font-size="9" fill="#8B949E" fill-opacity="0.75">by bytes of code &#183; owned repositories only (forks excluded) &#183; updated Oct 10, 2026</text></svg>
